<?xml version="1.0" encoding="UTF-8"?>
<svg id="New_Network_logo" data-name="New Network logo" xmlns="http://www.w3.org/2000/svg" viewBox="0 0 395.21 395.21">
  <defs>
    <style>
      .cls-1 {
        fill: none;
        stroke: #000;
        stroke-miterlimit: 10;
        stroke-width: 6.12px;
      }
    </style>
  </defs>
  <path class="cls-1" d="M103.09,218.34c8.77-7.46,19.88-16.39,34.71-20.36,15.71-4.21,39.24-4.91,39.98,4.94,1.3,17.31-47.05,17.5-68.54,11.08-43.6-12.16-40.4-35.34-51.33-68.71-4.13-15.77-32.15-43.86-6.85-49.58,53.78-12.15,149.79,61.46,140.12,126.67-4.13,27.87-15.9,81.58-46.66,85.26-33.88,4.05-60.41-22.27-60.87-50.49-.22-13.4,8.8-29.76,19.45-38.81Z"/>
  <path class="cls-1" d="M292.12,218.3c-8.77-7.46-19.88-16.39-34.71-20.36-15.71-4.21-39.24-4.91-39.98,4.94-1.3,17.31,47.05,17.5,68.54,11.08,43.6-12.16,40.4-35.34,51.33-68.71,4.13-15.77,32.15-43.86,6.85-49.58-53.78-12.15-149.79,61.46-140.12,126.67,4.13,27.87,15.9,81.58,46.66,85.26,33.88,4.05,60.41-22.27,60.87-50.49.22-13.4-8.8-29.76-19.45-38.81Z"/>
</svg>